<?xml version="1.0"?>
<svg xmlns="http://www.w3.org/2000/svg" xmlns:xlink="http://www.w3.org/1999/xlink" xmlns:svgjs="http://svgjs.com/svgjs" version="1.1" width="512" height="512" x="0" y="0" viewBox="0 0 58 51" style="enable-background:new 0 0 512 512" xml:space="preserve" class=""><g><g xmlns="http://www.w3.org/2000/svg" id="Page-1" fill="none" fill-rule="evenodd"><g id="081---Talking-About-Coffee" fill-rule="nonzero"><path id="Shape" d="m53.7 38.11 3.741 11.214c.1141054.3417339.0355647.7184293-.2055989.9860899-.2411637.2676606-.6076637.3849031-.9594011.3069101l-14.436-3.207c-4.0603856 1.7241321-8.4287497 2.6052897-12.84 2.59-16.02 0-29-11.19-29-25s12.98-25 29-25 29 11.19 29 25c-.01861 4.7135207-1.523312 9.3011121-4.3 13.11z" fill="#302b15" data-original="#f3d55b" style="" class=""/><path id="Shape" d="m4 26c-.55228475 0-1-.4477153-1-1 0-10.459 8.791-19.532 20.9-21.576.5419006-.08647569 1.0522532.27990211 1.143625.82099868.0913717.54109656-.2703767 1.05474091-.810625 1.15100132-11.143 1.88-19.233 10.125-19.233 19.604 0 .5522847-.44771525 1-1 1z" fill="#ffffff" data-original="#ffffff" style="" class=""/><circle id="Oval" cx="28" cy="4" fill="#ffffff" r="1" data-original="#ffffff" style="" class=""/><path id="Shape" d="m37 36.524c-.3165277.0002124-.6144674-.1494448-.8032785-.4034924-.1888112-.2540476-.2461981-.5824864-.1547215-.8855076.636-2.108 3.547-3.033 6.011-3.6.232-.054.481-.108.741-.164 2.739-.591 4.859-1.224 5.166-3.5.241-1.79-.693-2.216-1-2.356-1.7-.773-4.756.163-5.89 1.453-.3699643.3914027-.9834526.4194949-1.3876391.0635414-.4041865-.3559536-.4538623-.9680724-.1123609-1.3845414 1.655-1.882 5.605-3.144 8.221-1.951.968.44 2.534 1.6 2.152 4.442-.519 3.85-4.405 4.688-6.726 5.189-.249.054-.487.105-.71.157-3.444.8-4.374 1.655-4.549 2.234-.1293147.420411-.5181514.706965-.958.706z" fill="#d5c64b" data-original="#95a5a5" style="" class=""/><path id="Shape" d="m43 22v.04c-.05 3.29-6.52 5.96-14.5 5.96-7.91 0-14.33-2.62-14.49-5.87-.0082948-.0428082-.0116501-.0864268-.01-.13 0-3.31 6.49-6 14.5-6s14.5 2.69 14.5 6z" fill="#d5c64b" data-original="#bdc3c7" style="" class=""/><path id="Shape" d="m41 24.17v.04c-.003279.3496205-.0925727.6930581-.26 1-2.571 1.68-7.091 2.79-12.24 2.79s-9.66-1.11-12.23-2.78c-.1532758-.2909824-.2419605-.6116118-.26-.94-.0087446-.0359721-.0121145-.0730407-.01-.11 0-2.85 5.589-5.17 12.5-5.17s12.5 2.32 12.5 5.17z" fill="#563b2a" data-original="#a56a43" style="" class=""/><path id="Shape" d="m28.5 16c-8.011 0-14.5 2.69-14.5 6-.0016501.0435732.0017052.0871918.01.13.16 3.25 6.58 5.87 14.49 5.87 7.98 0 14.45-2.67 14.5-5.96v-.04c0-3.31-6.491-6-14.5-6zm12.5 5.53c-.041 2.47-5.621 4.47-12.5 4.47-6.82 0-12.35-1.96-12.49-4.4-.0082685-.0326539-.0116387-.0663553-.01-.1 0-2.48 5.59-4.5 12.5-4.5s12.5 2.02 12.5 4.5z" fill="#ecf0f1" data-original="#ecf0f1" style="" class=""/><path id="Shape" d="m28.519 39c-13.32 0-14.63-11.55-14.51-16.87.16 3.25 6.58 5.87 14.49 5.87 7.98 0 14.45-2.67 14.5-5.96h.03c.13 5.28-1.12 16.96-14.51 16.96z" fill="#d5c64b" data-original="#bdc3c7" style="" class=""/><g fill="#ff5364"><path id="Shape" d="m22 24c-.5522847 0-1-.4477153-1-1 .0182651-1.0160719.5074633-1.9660178 1.324-2.571.48-.441.676-.638.676-1.1s-.2-.657-.676-1.1c-.8309032-.5922319-1.3242151-1.5496379-1.3242151-2.57s.4933119-1.9777681 1.3242151-2.57c.476-.435.676-.631.676-1.089 0-.5522847.4477153-1 1-1s1 .4477153 1 1c-.0188138 1.0156161-.508398 1.9648551-1.325 2.569-.48.44-.675.637-.675 1.094s.2.656.675 1.1c.8313185.5924009 1.3248952 1.5502017 1.3248952 2.571s-.4935767 1.9785991-1.3248952 2.571c-.48.441-.675.639-.675 1.1-.0027517.5503311-.449662.9950069-1 .995z" fill="#c9c9c9" data-original="#ff5364" style="" class=""/><path id="Shape" d="m28 24c-.5522847 0-1-.4477153-1-1 .0182651-1.0160719.5074633-1.9660178 1.324-2.571.48-.441.676-.638.676-1.1s-.2-.657-.676-1.1c-.8309032-.5922319-1.3242151-1.5496379-1.3242151-2.57s.4933119-1.9777681 1.3242151-2.57c.476-.435.676-.631.676-1.089 0-.5522847.4477153-1 1-1s1 .4477153 1 1c-.0188138 1.0156161-.508398 1.9648551-1.325 2.569-.48.44-.675.637-.675 1.094s.2.656.675 1.1c.8313185.5924009 1.3248952 1.5502017 1.3248952 2.571s-.4935767 1.9785991-1.3248952 2.571c-.48.441-.675.639-.675 1.1-.0027517.5503311-.449662.9950069-1 .995z" fill="#c9c9c9" data-original="#ff5364" style="" class=""/><path id="Shape" d="m34 24c-.5522847 0-1-.4477153-1-1 .0182651-1.0160719.5074633-1.9660178 1.324-2.571.48-.441.676-.638.676-1.1s-.2-.657-.676-1.1c-.8309032-.5922319-1.3242151-1.5496379-1.3242151-2.57s.4933119-1.9777681 1.3242151-2.57c.476-.435.676-.631.676-1.089 0-.5522847.4477153-1 1-1s1 .4477153 1 1c-.0188138 1.0156161-.508398 1.9648551-1.325 2.569-.48.44-.675.637-.675 1.094s.2.656.675 1.1c.8313185.5924009 1.3248952 1.5502017 1.3248952 2.571s-.4935767 1.9785991-1.3248952 2.571c-.48.441-.675.639-.675 1.1-.0027517.5503311-.449662.9950069-1 .995z" fill="#c9c9c9" data-original="#ff5364" style="" class=""/></g></g></g></g></svg>
